<svg xmlns="http://www.w3.org/2000/svg" width="64" height="64" viewBox="0 0 64 64">
  <!-- Definitions for gradients and filters -->
  <defs>
    <!-- Main background gradient -->
    <linearGradient id="bgGradient" x1="0%" y1="0%" x2="100%" y2="100%">
      <stop offset="0%" style="stop-color:#4338ca;stop-opacity:1" />
      <stop offset="100%" style="stop-color:#7e22ce;stop-opacity:1" />
    </linearGradient>
    
    <!-- Laptop screen gradient -->
    <linearGradient id="screenGradient" x1="0%" y1="0%" x2="100%" y2="100%">
      <stop offset="0%" style="stop-color:#0f172a;stop-opacity:1" />
      <stop offset="100%" style="stop-color:#1e293b;stop-opacity:1" />
    </linearGradient>
    
    <!-- Battery indicator gradient -->
    <linearGradient id="batteryGradient" x1="0%" y1="0%" x2="100%" y2="0%">
      <stop offset="0%" style="stop-color:#4ade80;stop-opacity:1" />
      <stop offset="100%" style="stop-color:#22d3ee;stop-opacity:1" />
    </linearGradient>
    
    <!-- Glow filter -->
    <filter id="glow" x="-20%" y="-20%" width="140%" height="140%">
      <feGaussianBlur stdDeviation="2" result="blur"/>
      <feComposite in="SourceGraphic" in2="blur" operator="over"/>
    </filter>
    
    <!-- Shadow filter -->
    <filter id="shadow" x="-10%" y="-10%" width="120%" height="130%">
      <feDropShadow dx="0" dy="2" stdDeviation="1.5" flood-color="#000" flood-opacity="0.3"/>
    </filter>
  </defs>

  <!-- Background with rounded corners -->
  <rect x="2" y="2" width="60" height="60" rx="14" fill="url(#bgGradient)" filter="url(#shadow)"/>
  
  <!-- Inner decorative border -->
  <rect x="5" y="5" width="54" height="54" rx="12" fill="none" stroke="#a5b4fc" stroke-width="0.8" opacity="0.6"/>
  
  <!-- Laptop base/stand - more realistic with perspective -->
  <path d="M12 43 L52 43 L56 51 L8 51 Z" fill="#111827" filter="url(#shadow)"/>
  <path d="M14 43 L50 43 L53 50 L11 50 Z" fill="#374151"/>
  
  <!-- Cable management groove on the stand -->
  <path d="M24 46 L40 46" stroke="#6b7280" stroke-width="1" stroke-linecap="round"/>
  
  <!-- Laptop screen with realistic perspective -->
  <path d="M20 20 L44 18 L46 40 L18 42 Z" fill="url(#screenGradient)" filter="url(#shadow)"/>
  <path d="M21 21 L43 19 L45 39 L19 41 Z" fill="#1e293b" stroke="#6b7280" stroke-width="0.5"/>
  
  <!-- Screen content - code/work visualization -->
  <rect x="23" y="22" width="18" height="1.5" rx="0.75" fill="#6366f1" opacity="0.8"/>
  <rect x="23" y="25" width="12" height="1.5" rx="0.75" fill="#a5b4fc" opacity="0.6"/>
  <rect x="23" y="28" width="15" height="1.5" rx="0.75" fill="#a5b4fc" opacity="0.6"/>
  <rect x="23" y="31" width="10" height="1.5" rx="0.75" fill="#a5b4fc" opacity="0.6"/>
  <rect x="23" y="34" width="14" height="1.5" rx="0.75" fill="#a5b4fc" opacity="0.6"/>
  
  <!-- 5G connectivity symbol -->
  <text x="38" y="25" font-family="Arial, sans-serif" font-size="3.5" font-weight="bold" fill="#f472b6" filter="url(#glow)">5G</text>
  
  <!-- Battery/power indicator with pulse animation -->
  <rect x="36" y="30" width="7" height="3" rx="1.5" fill="url(#batteryGradient)" opacity="0.9">
    <animate attributeName="opacity" values="0.9;0.6;0.9" dur="2s" repeatCount="indefinite" />
  </rect>
  
  <!-- Electric bolt symbol for power -->
  <path d="M37 36 L39 34 L37 32 L39 30" stroke="#f59e0b" stroke-width="0.8" stroke-linecap="round" stroke-linejoin="round" filter="url(#glow)"/>
  
  <!-- Central logo element - "R" design -->
  <circle cx="32" cy="43" r="3.5" fill="#ffffff"/>
  <text x="32" y="44.5" font-family="Arial, sans-serif" font-size="5" font-weight="bold" fill="#4338ca" text-anchor="middle">R</text>
  
  <!-- Subtle keyboard indicator -->
  <rect x="22" y="40" width="20" height="1" rx="0.5" fill="#f1f5f9" opacity="0.5"/>
</svg>